<svg width="376" height="81" fill="none" xmlns="http://www.w3.org/2000/svg"><path d="M337.333 40.869v-.416h1.342v-3.65h-.292c-.177 0-.491.013-.684.107l-.116-.403c.163-.09.537-.129.774-.129h.357c.293 0 .443.15.443.412v3.663h1.093v.416h-2.917zm6.135-1.809c-.491.16-.788.19-.981.19-.985 0-1.48-.52-1.48-1.432 0-.831.486-1.474 1.437-1.474.92 0 1.471.609 1.471 1.504v1.628c0 .823-.503 1.432-1.381 1.432-.365 0-.74-.086-1.183-.206l-.262-.073.09-.416.267.073c.387.103.766.197 1.071.197.654 0 .946-.394.946-1.007v-.415h.005zm0-1.19c0-.69-.37-1.123-1.037-1.123-.641 0-.968.428-.968 1.067 0 .604.284 1.007 1.067 1.007.189 0 .4-.026.938-.163v-.788zm4.229-.283c0 .454-.181.921-.8 1.49l-1.51 1.393h2.318v.399h-2.564c-.18 0-.284-.12-.284-.296 0-.115.048-.21.134-.295l1.561-1.479c.474-.441.693-.767.693-1.225 0-.596-.417-.801-.916-.801-.31 0-.693.085-1.097.205l-.267.077-.09-.415.262-.077c.456-.138.843-.223 1.205-.223.701 0 1.355.33 1.355 1.247zm3.768 1.842c0 .943-.447 1.508-1.368 1.508-.916 0-1.411-.565-1.411-1.49v-1.625c0-.921.495-1.49 1.411-1.49.921 0 1.368.565 1.368 1.507v1.59zm-.439-1.581c0-.707-.279-1.11-.95-1.11-.667 0-.951.416-.951 1.11v1.572c0 .694.284 1.11.951 1.11.671 0 .95-.403.95-1.11v-1.572zm-10.879 7.192c0 .454-.181.925-.801 1.49l-1.51 1.393h2.319v.399h-2.564c-.181 0-.284-.12-.284-.296 0-.116.048-.21.134-.296l1.561-1.478c.473-.441.693-.767.693-1.226 0-.595-.417-.8-.916-.8-.31 0-.693.085-1.097.205l-.267.077-.091-.416.263-.077c.456-.137.843-.223 1.204-.223.702-.004 1.356.33 1.356 1.247zm3.768 1.836c0 .942-.447 1.508-1.368 1.508-.916 0-1.411-.566-1.411-1.491v-1.624c0-.926.499-1.491 1.411-1.491.921 0 1.368.565 1.368 1.508v1.59zm-.439-1.581c0-.707-.279-1.11-.95-1.11-.667 0-.951.415-.951 1.11v1.576c0 .695.284 1.11.951 1.11.671 0 .95-.403.95-1.11v-1.576zm4.242-.258c0 .455-.181.922-.8 1.492l-1.51 1.392h2.319v.399h-2.564c-.181 0-.284-.12-.284-.296 0-.116.047-.21.133-.296l1.562-1.478c.473-.441.692-.767.692-1.225 0-.596-.417-.802-.916-.802-.31 0-.692.086-1.097.206l-.267.077-.09-.416.262-.077c.456-.137.844-.222 1.205-.222.701-.005 1.355.33 1.355 1.246zm3.769 1.839c0 .942-.448 1.508-1.368 1.508-.917 0-1.411-.566-1.411-1.491v-1.624c0-.921.494-1.491 1.411-1.491.92 0 1.368.565 1.368 1.508v1.59zm-.439-1.581c0-.707-.28-1.11-.951-1.11-.667 0-.951.415-.951 1.11v1.576c0 .695.284 1.11.951 1.11.671 0 .951-.403.951-1.11v-1.576z" fill="#DE1E40"/><path fill-rule="evenodd" clip-rule="evenodd" d="M344.397 20.383c3.308 0 5.993 2.674 5.993 5.969 0 3.295-2.685 5.968-5.993 5.968-3.308 0-5.993-2.673-5.993-5.968 0-3.296 2.685-5.97 5.993-5.97zm.383 1.868a.165.165 0 00-.138.051c-.038.039-.051.09-.038.142l.826 4.576a.208.208 0 01-.048.18.22.22 0 01-.172.081h-1.617a.2.2 0 01-.168-.081.232.232 0 01-.052-.18l.826-4.576a.156.156 0 00-.043-.142.152.152 0 00-.137-.051 4.126 4.126 0 00-3.756 4.105 4.13 4.13 0 004.138 4.122 4.13 4.13 0 004.139-4.122 4.136 4.136 0 00-3.76-4.105z" fill="#DE1E40"/><path d="M315.414 59.345c-6.298 0-11.968-3.501-14.808-8.939a16.696 16.696 0 01-14.812 8.939c-5.433 0-10.363-2.559-13.456-6.766v5.403c0 .596-.482 1.075-1.085 1.075h-11.198a1.082 1.082 0 01-1.084-1.075V36.965l-2.616 1.243a1.084 1.084 0 01-1.436-.502l-2.573-5.253a1.08 1.08 0 01.413-1.397l7.739-4.627c.168-.099.362-.155.56-.155h10.2c.598 0 1.084.485 1.084 1.076v5.48c3.093-4.207 8.023-6.765 13.457-6.765a16.706 16.706 0 0114.812 8.938 16.697 16.697 0 0114.807-8.939c9.211 0 16.705 7.465 16.705 16.638-.004 9.178-7.498 16.643-16.709 16.643zm-14.808-12.76c.465 0 .878.295 1.024.732 1.992 5.905 7.529 9.872 13.784 9.872 8.019 0 14.541-6.495 14.541-14.482 0-7.987-6.522-14.483-14.541-14.483-6.255 0-11.792 3.968-13.784 9.872a1.078 1.078 0 01-1.024.733 1.09 1.09 0 01-1.028-.733 14.522 14.522 0 00-13.784-9.872c-6.018 0-11.327 3.604-13.534 9.182a1.082 1.082 0 01-2.086-.394V28.43h-8.82l-6.629 3.963 1.669 3.407 3.197-1.517a1.084 1.084 0 011.041.06c.314.197.503.54.503.912v21.647h9.034v-8.505c0-.519.37-.964.878-1.058a1.086 1.086 0 011.209.664c2.202 5.578 7.515 9.186 13.534 9.186 6.255 0 11.792-3.967 13.784-9.872.15-.437.563-.733 1.032-.733z" fill="#DE1E40"/><path fill-rule="evenodd" clip-rule="evenodd" d="M32.747 12.567c9.843 0 17.832 7.953 17.832 17.76 0 9.809-7.984 17.761-17.832 17.761-9.847 0-17.832-7.952-17.832-17.76.005-9.808 7.99-17.76 17.832-17.76zm1.136 5.553a.502.502 0 00-.538.583l2.453 13.613a.635.635 0 01-.147.54.644.644 0 01-.507.236H30.35a.644.644 0 01-.508-.236.629.629 0 01-.142-.54L32.154 18.7a.46.46 0 00-.125-.42.485.485 0 00-.413-.159c-6.268.57-11.181 5.82-11.181 12.208 0 6.77 5.51 12.259 12.308 12.259 6.797 0 12.308-5.49 12.308-12.26.005-6.392-4.904-11.637-11.168-12.207zM27.46 53.569h10.579a.87.87 0 01.869.865v3.754a.87.87 0 01-.87.865H27.46a.87.87 0 01-.869-.865v-3.754c0-.48.392-.865.869-.865z" fill="#DE1E40"/><path fill-rule="evenodd" clip-rule="evenodd" d="M211.283 42.27c0-6.222 5.059-11.26 11.306-11.26 6.246 0 11.305 5.043 11.305 11.26 0 6.221-5.059 11.26-11.305 11.26-6.243 0-11.306-5.043-11.306-11.26zm9.482-3.71a6.432 6.432 0 013.88 4.691 2.451 2.451 0 012.104-1.191 2.442 2.442 0 012.448 2.438 2.451 2.451 0 01-4.552 1.247c-.422 2.134-1.906 3.86-3.88 4.666h3.544v-.364c.745.334 1.571.368 2.44.368 3.291 0 5.958-2.64 5.958-5.917 0-3.278-2.667-5.935-5.958-5.935a5.95 5.95 0 00-2.44.519v-7.087a10.98 10.98 0 00-1.772-.146c-.602 0-1.196.052-1.772.146v6.564zm3.48 6.628a6.099 6.099 0 00-.004-1.406h-3.575a2.461 2.461 0 01.008 1.406h3.571zm-11.878-.694c0 3.277 2.667 5.908 5.958 5.908.869 0 1.691-.158 2.435-.492a5.937 5.937 0 003.403-4.238h-3.7a2.447 2.447 0 01-2.142 1.255 2.444 2.444 0 01-2.448-2.438 2.444 2.444 0 012.448-2.438c.908 0 1.699.493 2.121 1.226h3.713a5.943 5.943 0 00-3.399-4.204 5.933 5.933 0 00-2.435-.518c-3.287.004-5.954 2.66-5.954 5.939z" fill="#333D47"/><path d="M209.536 54.228h26.109v4.82h-26.109v-4.82zm5.361 4.367h.761v-2.151h-1.605v.835h.534c-.06.292-.344.433-.628.433-.736 0-.882-.638-.882-1.007 0-.265-.026-1.14.8-1.14.284 0 .525.202.572.489h1.157c-.176-.917-.808-1.461-1.806-1.461-.882 0-1.932.595-1.932 2.082 0 1.11.714 2.01 1.871 2.01.431 0 .848-.15 1.115-.493l.043.403zm1.634 0h1.209v-1.363h.641c.478 0 .512.39.542.763.017.201.039.403.099.6h1.209c-.107-.18-.116-.647-.133-.836-.043-.488-.245-.848-.577-.973.4-.145.59-.574.59-.976 0-.737-.594-1.119-1.278-1.119h-2.302v3.904zm1.209-2.978v.775h.633c.223 0 .533-.038.533-.39 0-.244-.138-.39-.598-.39h-.568v.005zm3.016 1.024c0 1.191.796 2.044 1.988 2.044 1.191 0 1.987-.853 1.987-2.044s-.796-2.048-1.987-2.048c-1.192 0-1.988.857-1.988 2.048zm1.209 0c0 .87.473 1.071.779 1.071.305 0 .778-.201.778-1.071 0-.87-.473-1.071-.778-1.071-.306-.005-.779.201-.779 1.07zm7.111-1.954h-1.209v2.13c0 .398 0 .895-.572.895-.589 0-.589-.497-.589-.896v-2.129h-1.209v2.395c0 1.084.593 1.603 1.789 1.603s1.786-.519 1.786-1.603v-2.395h.004zm.882 3.908h1.209v-1.183h.714c.899 0 1.54-.441 1.54-1.388 0-.557-.374-1.337-1.437-1.337h-2.022v3.908h-.004zm1.209-2.905v.792h.465c.314 0 .641-.021.641-.415 0-.356-.276-.377-.573-.377h-.533z" fill="#333D47"/><path fill-rule="evenodd" clip-rule="evenodd" d="M210.59 28.584h.817c.306 0 .551.116.551.459 0 .321-.224.437-.551.437h-.817v-.896zm-1.02 1.71h1.885c.839 0 1.527-.283 1.527-1.213 0-.441-.258-.805-.675-.925.305-.154.516-.437.516-.789 0-.814-.74-.99-1.416-.98h-1.832v3.907h-.005zm1.02-3.12h.792c.215 0 .417.095.417.378 0 .278-.241.372-.417.372h-.792v-.75zm2.728 3.12h1.023V26.39h-1.023v3.904zm1.514 0h2.852v-.874h-1.828v-3.03h-1.02v3.904h-.004zm4.715-2.824h.013l.434 1.367h-.89l.443-1.367zm-1.979 2.824l1.467-3.904h1.037l1.467 3.904h-1.067l-.241-.699h-1.368l-.245.699h-1.05zm4.04 0h.959V27.86h.013l1.364 2.434h1.049V26.39h-.959v2.408h-.013l-1.364-2.408h-1.049v3.904zm7.49-2.511c-.026-.943-.947-1.478-1.79-1.478-1.188 0-1.953.904-1.953 2.035 0 1.131.77 2.035 1.953 2.035.994 0 1.738-.591 1.79-1.598h-1.02c-.039.45-.314.724-.792.724-.658 0-.912-.578-.912-1.161 0-.578.254-1.161.912-1.161.431 0 .736.21.792.6h1.02v.004zm.322 2.51h1.024V26.39h-1.024v3.904zm3.089-2.823h.013l.434 1.367h-.89l.443-1.367zm-1.975 2.824h1.05l.25-.699h1.368l.241.699h1.066l-1.467-3.904h-1.036l-1.472 3.904zm4.049 0h1.024V26.39h-1.024v3.904z" fill="#333D47"/><path d="M235.645 30.936h-26.109v.408h26.109v-.408zm0 1.063h-26.109v.407h26.109V32zm0 1.059h-26.109v.407h26.109v-.407zm0 1.062h-26.109v.407h26.109v-.407zm0 1.063h-26.109v.407h26.109v-.407zm0 1.058h-26.109v.407h26.109v-.407zm0 1.063h-26.109v.407h26.109v-.407zm0 1.062h-26.109v.407h26.109v-.407zm0 1.059h-26.109v.407h26.109v-.407zm0 1.062h-26.109v.407h26.109v-.407zm0 1.059h-26.109v.407h26.109v-.407zm0 1.062h-26.109v.408h26.109v-.408zm0 1.062h-26.109v.408h26.109v-.407zm0 1.06h-26.109v.407h26.109v-.407zm0 1.062h-26.109v.407h26.109v-.407zm0 1.063h-26.109v.407h26.109v-.407zm0 1.058h-26.109v.407h26.109v-.407zm0 1.063h-26.109v.407h26.109v-.407zm0 1.062h-26.109v.407h26.109v-.407zm0 1.059h-26.109v.407h26.109v-.407zm0 1.063h-26.109v.406h26.109v-.407zm0 1.057h-26.109v.407h26.109v-.407z" fill="#D2D4D7"/><path d="M97.123 41.67v.557h-3.648l-.137-.553-.611.146a25.63 25.63 0 01-1.39.291c-.482.086-.955.159-1.415.206-.465.052-.886.082-1.274.082-1.17-.005-2.168-.189-3.003-.553-.83-.364-1.47-.891-1.91-1.577-.447-.686-.67-1.512-.675-2.485.008-1.029.215-1.873.615-2.524a4.11 4.11 0 011.665-1.512c.697-.352 1.506-.6 2.413-.729a18.722 18.722 0 012.879-.193h2.68v-1.07c-.005-.588-.12-1.055-.353-1.402a1.958 1.958 0 00-.985-.754c-.422-.15-.917-.227-1.484-.223-.43 0-.904.034-1.416.103-.516.068-1.058.163-1.622.291-.563.124-1.131.274-1.708.45l-1.6.493-.525-3.132 1.484-.463a23.532 23.532 0 012.977-.733 16.88 16.88 0 012.818-.253c.9-.004 1.73.099 2.487.296a5.48 5.48 0 011.974.943c.56.433.994.998 1.3 1.697.31.702.464 1.55.469 2.549V41.67h-.005zm-3.785-2.862V35.56H89.93c-.925-.009-1.643.15-2.16.48-.516.325-.77.861-.778 1.611.004.638.22 1.11.641 1.422.422.31 1.015.463 1.777.463.34 0 .744-.03 1.213-.09.465-.068.964-.167 1.493-.313l1.222-.325zm50.996 2.862v.557h-3.648l-.138-.553-.611.146a25.39 25.39 0 01-1.389.291 19.4 19.4 0 01-1.416.206c-.464.052-.886.082-1.273.082-1.17-.005-2.168-.189-3.003-.553-.83-.364-1.471-.891-1.91-1.577-.447-.686-.671-1.512-.675-2.485.008-1.029.215-1.873.615-2.524a4.102 4.102 0 011.665-1.512c.697-.352 1.505-.6 2.413-.729a18.725 18.725 0 012.878-.193h2.68v-1.07c-.004-.588-.12-1.055-.352-1.402a1.96 1.96 0 00-.986-.754c-.421-.15-.916-.227-1.484-.223-.43 0-.903.034-1.415.103-.516.068-1.058.163-1.622.291-.564.124-1.131.274-1.708.45l-1.6.493-.525-3.132 1.484-.463a23.663 23.663 0 012.973-.733 16.872 16.872 0 012.818-.253 9.667 9.667 0 012.486.296 5.48 5.48 0 011.975.943c.559.433.994.998 1.299 1.697.31.702.465 1.55.469 2.549V41.67zm-3.786-2.862V35.56h-3.407c-.925-.009-1.648.15-2.16.48-.516.325-.77.861-.778 1.611.004.638.219 1.11.641 1.422.421.31 1.015.463 1.776.463.34 0 .745-.03 1.214-.09a12.29 12.29 0 001.492-.313l1.222-.325zm39.855-12.503v3.016h8.298l-7.804 8.874a3.619 3.619 0 00-.593.947c-.147.338-.22.69-.224 1.054 0 .403.073.75.219 1.054.147.304.366.54.663.716.301.167.675.257 1.131.261h11.676v-2.986h-8.531l7.864-9.02c.233-.279.413-.587.538-.908a2.63 2.63 0 00.189-.947 2.45 2.45 0 00-.219-1.063 1.631 1.631 0 00-.658-.724c-.301-.18-.676-.266-1.132-.27h-11.417v-.004zm-6.845 12.211c-.508.138-.942.232-1.299.3a8.947 8.947 0 01-.929.133c-.263.017-.512.03-.736.03-.667-.004-1.2-.124-1.596-.364-.4-.236-.68-.557-.852-.956a3.269 3.269 0 01-.258-1.35V26.306H163.9v10.382c0 .831.12 1.59.366 2.28a4.73 4.73 0 001.148 1.799c.525.51 1.201.904 2.022 1.178.83.279 1.824.42 2.986.424.68.009 1.437-.038 2.271-.137.839-.094 1.803-.295 2.883-.591.671-.167 1.178-.454 1.523-.861.339-.403.516-.956.516-1.663V26.305h-4.048v12.211h-.009zm-22.775 8.407v-5.245c.611.193 1.204.343 1.781.459a9.012 9.012 0 001.712.18c1.575-.005 2.891-.33 3.954-.969 1.062-.638 1.862-1.56 2.396-2.763.538-1.209.809-2.674.809-4.388-.005-1.697-.306-3.14-.904-4.34-.598-1.196-1.462-2.108-2.59-2.743-1.131-.63-2.499-.947-4.104-.95-.482 0-.976.016-1.48.055-.507.043-1.054.12-1.639.231a21.46 21.46 0 00-1.944.463c-.68.197-1.183.493-1.506.891-.318.399-.482.93-.478 1.607v18.245l3.993-.733zm2.973-7.854a5.86 5.86 0 01-.693-.039 10.08 10.08 0 01-.921-.154 24.955 24.955 0 01-1.355-.33v-8.758c.344-.069.658-.128.951-.189a10.4 10.4 0 01.882-.137c.297-.034.628-.051.989-.051.908.004 1.652.201 2.224.591.568.39.99.947 1.257 1.667.266.724.4 1.585.391 2.588.004 1.024-.12 1.898-.37 2.614-.254.715-.649 1.26-1.2 1.632-.551.377-1.269.566-2.155.566zm-32.038-9.427c.646.005 1.166.125 1.549.356.383.236.658.549.826.934.168.39.254.823.245 1.29v10.005h3.988V31.901a7.847 7.847 0 00-.288-2.233 4.704 4.704 0 00-.977-1.808c-.451-.514-1.058-.913-1.819-1.204-.762-.291-1.704-.437-2.831-.441a9.757 9.757 0 00-1.824.192c-.633.12-1.256.279-1.876.476v-7.1l-4.048.724v21.724h4.048V30.165c.538-.145.99-.252 1.355-.33.366-.077.676-.124.934-.154a6.23 6.23 0 01.718-.039zm-18.52 4.641c0-1.62.327-2.824.972-3.612.645-.789 1.605-1.178 2.874-1.174a8.427 8.427 0 011.678.205 27.43 27.43 0 011.987.519l1.282.377.525-3.278-1.338-.407a20.996 20.996 0 00-2.383-.574 12.356 12.356 0 00-2.19-.21c-1.118 0-2.134.176-3.054.523a6.462 6.462 0 00-2.375 1.55c-.667.686-1.179 1.539-1.54 2.554-.357 1.016-.542 2.19-.55 3.523.003 1.38.188 2.575.55 3.595.357 1.024.873 1.872 1.54 2.54a6.25 6.25 0 002.375 1.513c.916.334 1.936.497 3.054.497a12.8 12.8 0 002.19-.206c.757-.137 1.553-.33 2.383-.574l1.338-.407-.525-3.278-1.282.377c-.705.206-1.363.382-1.987.519a8.435 8.435 0 01-1.678.206c-1.265 0-2.229-.39-2.874-1.183-.649-.789-.972-1.984-.972-3.595zm-39.562-2.815c.004 1.86.254 3.48.744 4.859.49 1.376 1.183 2.515 2.083 3.42a8.423 8.423 0 003.192 2.017c1.234.446 2.598.669 4.087.669.976.008 1.961-.081 2.955-.27.994-.193 2.01-.45 3.042-.771l1.69-.523-.61-3.856-1.747.582c-.86.292-1.687.502-2.47.639a13.76 13.76 0 01-2.275.201c-1.2.005-2.224-.24-3.076-.733-.86-.492-1.515-1.25-1.97-2.279-.457-1.028-.685-2.344-.689-3.946.004-1.586.228-2.893.68-3.925.447-1.033 1.093-1.804 1.94-2.31.847-.501 1.88-.758 3.085-.754.499 0 1.006.039 1.505.111.5.073 1.02.176 1.553.309.538.137 1.11.296 1.717.48l1.746.523.611-3.83-1.69-.524a27.908 27.908 0 00-3.038-.762 16.299 16.299 0 00-2.93-.279c-1.47 0-2.817.227-4.052.681a8.697 8.697 0 00-3.21 2.049c-.907.908-1.608 2.048-2.112 3.423-.503 1.363-.752 2.965-.76 4.8zm6.617 27.217c-.048.244-.22.373-.474.373-.253 0-.417-.116-.481-.343l-1.48-5.138-1.519 5.138c-.065.218-.237.334-.473.334-.254 0-.409-.137-.448-.373l-1.07-5.737h.597l.981 5.33 1.51-5.021c.056-.202.21-.309.443-.309.228 0 .383.107.443.309l1.48 5.03.998-5.339h.59l-1.097 5.746zm1.686-1.894c0-1.594.938-2.288 2.009-2.288 1.183 0 1.996.707 1.996 2.172 0 .227-.116.364-.344.364h-3.041c.043.986.696 1.432 1.535 1.432.301 0 .654-.056 1.218-.227l.447-.138.125.536-.434.137c-.607.197-.973.261-1.382.261-1.256.005-2.129-.736-2.129-2.249zm2.005-1.778c-.818 0-1.334.578-1.381 1.5h2.762c-.005-.815-.413-1.5-1.381-1.5zm3.497-1.341c-.253 0-.408-.18-.408-.455 0-.278.155-.454.408-.454.254 0 .41.18.41.454 0 .275-.156.455-.41.455zm-.305 5.321v-4.426h.61v4.426h-.61zm3.756 1.474c-.951 0-1.863-.291-1.863-1.157 0-.39.18-.677.318-.848l.426-.514a.556.556 0 00.155-.381c0-.197-.082-.318-.31-.472-.284-.197-.636-.488-.636-1.13 0-.926.735-1.394 1.854-1.394h.473c.456 0 .654-.017.856-.072l.947-.262.137.514-.963.279s.434.279.434.93c0 .93-.701 1.384-1.863 1.384a2.17 2.17 0 01-.516-.047.485.485 0 01.108.317c0 .137-.03.278-.203.488H81.8c.925 0 1.381.424 1.381 1.024-.004.844-.705 1.341-2.288 1.341zm-.043-5.403c-.77 0-1.291.236-1.291.904 0 .699.533.93 1.29.93.736 0 1.291-.253 1.291-.93 0-.668-.525-.904-1.29-.904zm.933 3.548h-1.906a.913.913 0 00-.28.677c0 .506.599.694 1.356.694 1.136 0 1.652-.287 1.652-.84 0-.304-.228-.53-.822-.53zm3.02-3.295v3.68h-.59v-6.144l.59-.124v2.07c.688-.21 1.045-.262 1.308-.262 1.2 0 1.6.724 1.6 1.594v2.867h-.59v-2.841c0-.604-.253-1.05-1.088-1.05-.245-.004-.507.022-1.23.21zm4.591-1.645c-.254 0-.41-.18-.41-.455 0-.278.156-.454.41-.454.253 0 .408.18.408.454-.004.275-.159.455-.408.455zm-.306 5.321v-4.426h.611v4.426h-.61zm2.641.001h-.597v-3.681c0-.326.172-.514.473-.587.735-.189 1.136-.197 1.406-.197 1.2 0 1.661.698 1.661 1.594v2.866h-.598v-2.806c0-.634-.262-1.102-1.127-1.102-.271 0-.555.018-1.218.18v3.733zm5.778 1.473c-.95 0-1.863-.291-1.863-1.157 0-.39.181-.677.319-.848l.426-.514a.556.556 0 00.154-.381c0-.197-.081-.318-.31-.472-.283-.197-.636-.488-.636-1.13 0-.926.736-1.394 1.854-1.394h.474c.455 0 .653-.017.856-.072l.946-.262.138.514-.964.279s.434.279.434.93c0 .93-.7 1.384-1.862 1.384a2.17 2.17 0 01-.516-.047.485.485 0 01.107.317c0 .137-.03.278-.202.488h1.553c.925 0 1.38.424 1.38 1.024 0 .844-.7 1.341-2.288 1.341zm-.038-5.403c-.77 0-1.291.236-1.291.904 0 .699.533.93 1.29.93.736 0 1.291-.253 1.291-.93 0-.668-.525-.904-1.29-.904zm.929 3.548H96.49a.913.913 0 00-.28.677c0 .506.598.694 1.355.694 1.136 0 1.652-.287 1.652-.84.005-.304-.223-.53-.821-.53zm8.643.381l-.418-.505c-.426.364-1.178.604-1.832.604-1.261 0-1.898-.733-1.898-1.585 0-.605.284-1.23 1.274-1.676-.448-.488-.77-.857-.77-1.504 0-.994.791-1.482 1.733-1.482.947 0 1.644.471 1.644 1.4 0 .815-.491 1.312-1.652 1.783l1.518 1.663c.263-.283.435-.921.435-1.581v-.724h.589v.758c0 .716-.228 1.521-.619 1.954l.761.904h-.765v-.009zm-2.504-2.759c-.77.317-1.016.741-1.016 1.255 0 .523.353 1.067 1.265 1.067.517 0 1.119-.188 1.454-.471l-1.703-1.851zm.598-2.88c-.783 0-1.145.416-1.145.969 0 .454.246.767.775 1.303.946-.352 1.437-.707 1.437-1.376.004-.497-.323-.895-1.067-.895zm6.621 5.639c-.37 0-.598-.218-.598-.552v-5.502h.636v5.493h3.05v.561h-3.088zm5.794.052c-1.269 0-2.069-.831-2.069-2.263 0-1.448.835-2.262 2.1-2.262 1.269 0 2.069.814 2.069 2.262 0 1.449-.83 2.263-2.1 2.263zm0-4.007c-.942 0-1.445.643-1.445 1.744 0 1.115.538 1.744 1.48 1.744s1.454-.625 1.454-1.744c0-1.1-.546-1.743-1.489-1.743zm4.978 5.429c-.947 0-1.863-.291-1.863-1.157 0-.39.181-.677.318-.848l.426-.514a.557.557 0 00.155-.381c0-.197-.082-.318-.31-.472-.288-.197-.636-.488-.636-1.13 0-.926.735-1.394 1.854-1.394h.473c.456 0 .654-.017.856-.072l.947-.262.137.514-.963.279s.434.279.434.93c0 .93-.701 1.384-1.863 1.384-.344 0-.516-.047-.516-.047a.483.483 0 01.108.317c0 .137-.035.278-.202.488h1.553c.925 0 1.381.424 1.381 1.024 0 .844-.702 1.341-2.289 1.341zm-.039-5.403c-.77 0-1.29.236-1.29.904 0 .699.529.93 1.29.93.736 0 1.291-.253 1.291-.93 0-.668-.521-.904-1.291-.904zm.929 3.548h-1.905c-.203.219-.28.424-.28.677 0 .506.598.694 1.355.694 1.136 0 1.652-.287 1.652-.84.004-.304-.224-.53-.822-.53zm2.805-4.94c-.253 0-.408-.18-.408-.455 0-.278.155-.454.408-.454.254 0 .409.18.409.454.004.275-.155.455-.409.455zm-.301 5.321v-4.426h.615v4.426h-.615zM130 56.594c.753.128 1.191.535 1.191 1.165 0 .887-.744 1.294-1.535 1.294-.607 0-1.037-.107-1.601-.27l-.335-.098.116-.544.353.098c.49.137.963.253 1.479.253.5 0 .934-.201.934-.698 0-.343-.211-.562-.774-.652l-.882-.154c-.753-.129-1.192-.544-1.192-1.174 0-.887.744-1.294 1.536-1.294.606 0 1.037.107 1.6.27l.336.099-.116.552-.353-.098c-.491-.137-.964-.262-1.48-.262-.499 0-.929.202-.929.699 0 .343.211.561.774.66l.878.154zm4.947 2.318c-.452.09-.736.129-.938.129-.856 0-1.273-.48-1.273-1.401v-2.451h-.71v-.544h.71V53.53l.598-.125v1.239h1.51v.544h-1.51v2.4c0 .616.189.895.701.895.172 0 .383-.035.826-.129l.086.557zm1.372-5.24c-.253 0-.408-.18-.408-.455 0-.278.155-.454.408-.454.254 0 .409.18.409.454 0 .275-.155.455-.409.455zm-.301 5.321v-4.426h.615v4.426h-.615zm3.709-4.473c.327 0 .727.09 1.251.227l.362.099-.116.552-.37-.098c-.499-.129-.848-.21-1.102-.21-.916 0-1.389.553-1.389 1.692 0 1.14.482 1.693 1.398 1.693.254 0 .598-.081 1.093-.21l.37-.099.116.553-.362.099c-.52.137-.924.227-1.251.227-1.183 0-1.992-.686-1.992-2.263 0-1.482.809-2.262 1.992-2.262zm5.059 2.074c.753.128 1.192.535 1.192 1.165 0 .887-.745 1.294-1.536 1.294-.607 0-1.037-.107-1.601-.27l-.335-.098.116-.544.353.098c.49.137.963.253 1.48.253.499 0 .933-.201.933-.698 0-.343-.211-.562-.774-.652l-.882-.154c-.753-.129-1.192-.544-1.192-1.174 0-.887.744-1.294 1.536-1.294.602 0 1.037.107 1.6.27l.336.099-.116.552-.353-.098c-.49-.137-.964-.262-1.48-.262-.499 0-.933.202-.933.699 0 .343.21.561.774.66l.882.154zm8.38-.78c.934.202 1.48.69 1.48 1.581 0 1.157-.929 1.667-1.888 1.667-.719 0-1.291-.137-1.979-.36l-.409-.128.146-.579.418.137c.58.198 1.2.365 1.806.365.628 0 1.274-.309 1.274-1.084 0-.536-.276-.853-.964-1.012l-1.179-.27c-.925-.201-1.471-.707-1.471-1.572 0-1.157.934-1.667 1.88-1.667.719 0 1.261.146 1.936.364l.409.129-.147.578-.417-.137c-.581-.197-1.161-.368-1.764-.368-.654 0-1.269.3-1.269 1.075 0 .532.271.849.955 1.003l1.183.278zm1.992 4.516l.09-.552c.435.107.628.145.801.145.408 0 .563-.21.636-.505l.056-.219-1.79-4.632h.689l1.428 3.891 1.218-3.89h.671l-1.7 5.03c-.206.604-.598.878-1.217.878-.207 0-.452-.03-.882-.145zm6.849-3.736c.753.128 1.192.535 1.192 1.165 0 .887-.745 1.294-1.536 1.294-.607 0-1.037-.107-1.601-.27l-.335-.098.116-.544.353.098c.49.137.964.253 1.48.253.499 0 .933-.201.933-.698 0-.343-.21-.562-.774-.652l-.882-.154c-.753-.129-1.192-.544-1.192-1.174 0-.887.745-1.294 1.536-1.294.602 0 1.037.107 1.601.27l.335.099-.116.552-.353-.098c-.49-.137-.963-.262-1.48-.262-.499 0-.933.202-.933.699 0 .343.211.561.774.66l.882.154zm4.943 2.318c-.447.09-.736.129-.942.129-.856 0-1.274-.48-1.274-1.401v-2.451h-.709v-.544h.709V53.53l.598-.125v1.239h1.51v.544h-1.51v2.4c0 .616.19.895.702.895.172 0 .383-.035.826-.129l.09.557zm.719-2.121c0-1.594.942-2.288 2.009-2.288 1.183 0 1.991.707 1.991 2.172 0 .227-.116.364-.344.364h-3.041c.043.986.697 1.432 1.536 1.432.301 0 .653-.056 1.217-.227l.447-.138.125.536-.434.137c-.607.197-.973.261-1.381.261-1.248.005-2.125-.736-2.125-2.249zm2.004-1.778c-.817 0-1.333.578-1.381 1.5h2.762c0-.815-.408-1.5-1.381-1.5zm3.726 3.981h-.598v-3.681c0-.326.172-.489.473-.587a3.873 3.873 0 011.235-.197c.507 0 .873.137 1.11.373.529-.236 1.028-.373 1.527-.373 1.054 0 1.497.617 1.497 1.512v2.948h-.598v-2.888c0-.608-.237-1.01-.964-1.01-.434 0-.735.098-1.178.26.09.21.129.442.129.695v2.948h-.598v-2.888c0-.609-.245-1.02-.973-1.02-.271 0-.563.026-1.071.18v3.728h.009zm8.78-2.4c.753.128 1.192.535 1.192 1.165 0 .887-.744 1.294-1.536 1.294-.606 0-1.037-.107-1.6-.27l-.336-.098.116-.544.353.098c.491.137.964.253 1.48.253.499 0 .934-.201.934-.698 0-.343-.211-.562-.775-.652l-.882-.154c-.753-.129-1.191-.544-1.191-1.174 0-.887.744-1.294 1.535-1.294.607 0 1.037.107 1.601.27l.335.099-.116.552-.353-.098c-.49-.137-.963-.262-1.479-.262-.499 0-.93.202-.93.699 0 .343.211.561.775.66l.877.154z" fill="#333D47"/></svg>