<svg width="716" height="682" viewBox="0 0 716 682" fill="none" xmlns="http://www.w3.org/2000/svg">
<path d="M33 41.5837V676.372C33 679.134 35.1793 680.977 37.9408 680.977C283.378 680.977 644.681 680.998 671.803 681C672.965 681 673.915 680.595 674.811 679.855L713.184 648.171C714.334 647.221 715 645.807 715 644.315V40C715 38.3431 713.657 37 712 37H38C35.2386 37 33 38.8223 33 41.5837Z" stroke="#DE1E40" stroke-width="2"/>
<rect width="136" height="108" fill="white"/>
<g clip-path="url(#clip0_204_262)">
<path d="M55.1201 69.1097L21.0001 69.1097L21.0001 39.7897C21.0001 34.9097 21.8801 30.8697 23.6301 27.6397C25.3801 24.4197 27.6501 21.7397 30.4501 19.5997C33.2401 17.4697 36.3501 15.7497 39.7801 14.4597C43.2101 13.1697 46.6001 12.0097 49.9501 10.9997L54.9801 20.1397C52.4401 21.0997 50.2701 22.0797 48.4701 23.0697C46.6701 24.0597 45.1901 25.1397 44.0501 26.3097C42.9101 27.4797 42.0701 28.8097 41.5401 30.3097C41.0101 31.8097 40.7401 33.5697 40.7401 35.5997L55.1201 35.5997L55.1201 69.1097ZM97.3101 69.1097L63.2701 69.1097L63.2701 39.7897C63.2701 34.9097 64.1501 30.8697 65.9001 27.6397C67.6501 24.4197 69.9101 21.7397 72.6801 19.5997C75.4501 17.4697 78.5401 15.7497 81.9701 14.4597C85.4001 13.1697 88.7901 12.0097 92.1401 10.9997L97.2401 20.1397C94.7001 21.0997 92.5301 22.0797 90.7301 23.0697C88.9301 24.0597 87.4501 25.1397 86.3101 26.3097C85.1701 27.4797 84.3301 28.8097 83.8001 30.3097C83.2701 31.8097 83.0001 33.5697 83.0001 35.5997L97.3101 35.5997L97.3101 69.1097Z" fill="#DE1E40"/>
</g>
<defs>
<clipPath id="clip0_204_262">
<rect width="76.31" height="58.11" fill="white" transform="translate(97.3101 69.1097) rotate(-180)"/>
</clipPath>
</defs>
</svg>
