<svg width="41" height="39" viewBox="0 0 41 39" fill="none" xmlns="http://www.w3.org/2000/svg">
<path fill-rule="evenodd" clip-rule="evenodd" d="M20.3202 38.4298C9.09765 38.4298 0 29.827 0 19.2149C0 8.6028 9.09765 0 20.3202 0C31.5427 0 40.6404 8.6028 40.6404 19.2149C40.6404 29.827 31.5427 38.4298 20.3202 38.4298ZM20.3201 34.9363C29.5022 34.9363 36.9457 27.8977 36.9457 19.2151C36.9457 10.5324 29.5022 3.49377 20.3201 3.49377C11.1381 3.49377 3.69452 10.5324 3.69452 19.2151C3.69452 27.8977 11.1381 34.9363 20.3201 34.9363ZM17.9319 10.9926L15.3194 13.463L21.4023 19.2151L15.3194 24.9671L17.9319 27.4375L26.6272 19.2151L17.9319 10.9926Z" fill="#DE1E40"/>
</svg>
