<svg width="40" height="40" viewBox="0 0 40 40" fill="none" xmlns="http://www.w3.org/2000/svg">
<path fill-rule="evenodd" clip-rule="evenodd" d="M21.8269 30.4257L19.9999 32.0211L18.1729 30.4257C11.6473 24.7277 8.33325 19.6854 8.33325 15C8.33325 8.36906 13.5057 3.33337 19.9999 3.33337C26.4941 3.33337 31.6666 8.36906 31.6666 15C31.6666 19.6854 28.3525 24.7277 21.8269 30.4257ZM9.47584 24.6724C10.1602 25.6093 10.9224 26.5623 11.7624 27.5317C8.65867 28.2308 6.66659 29.2229 6.66659 30.0001C6.66659 31.345 12.6318 33.3334 19.9999 33.3334C27.368 33.3334 33.3333 31.345 33.3333 30.0001C33.3333 29.2229 31.3412 28.2308 28.2375 27.5317C29.0774 26.5623 29.8397 25.6093 30.524 24.6724C34.272 25.8098 36.6666 27.634 36.6666 30.0001C36.6666 34.178 29.2004 36.6668 19.9999 36.6668C10.7995 36.6668 3.33325 34.178 3.33325 30.0001C3.33325 27.634 5.72782 25.8098 9.47584 24.6724ZM19.9999 6.66675C24.6728 6.66675 28.3332 10.2303 28.3332 15.0001C28.3332 18.4117 25.621 22.6099 19.9999 27.5935C14.3788 22.6099 11.6666 18.4117 11.6666 15.0001C11.6666 10.2303 15.327 6.66675 19.9999 6.66675ZM20 10C22.7614 10 25 12.2386 25 15C25 17.7614 22.7614 20 20 20C17.2385 20 15 17.7614 15 15C15 12.2386 17.2385 10 20 10ZM18.3332 15C18.3332 14.0796 19.0794 13.3334 19.9999 13.3334C20.9204 13.3334 21.6666 14.0796 21.6666 15C21.6666 15.9205 20.9204 16.6667 19.9999 16.6667C19.0794 16.6667 18.3332 15.9205 18.3332 15Z" fill="white"/>
</svg>
