<svg width="41" height="39" viewBox="0 0 41 39" fill="none" xmlns="http://www.w3.org/2000/svg">
<path fill-rule="evenodd" clip-rule="evenodd" d="M20.3202 1.32205e-05C31.5427 1.22394e-05 40.6404 8.60281 40.6404 19.2149C40.6404 29.827 31.5427 38.4298 20.3202 38.4298C9.09768 38.4298 2.21361e-05 29.827 2.12084e-05 19.2149C2.02806e-05 8.60282 9.09767 1.42016e-05 20.3202 1.32205e-05ZM20.3203 3.49347C11.1382 3.49347 3.69465 10.5321 3.69465 19.2148C3.69465 27.8974 11.1382 34.936 20.3203 34.936C29.5023 34.936 36.9459 27.8974 36.9459 19.2148C36.9459 10.5321 29.5023 3.49347 20.3203 3.49347ZM22.7085 27.4372L25.321 24.9668L19.2381 19.2148L25.321 13.4627L22.7085 10.9923L14.0131 19.2148L22.7085 27.4372Z" fill="#DE1E40"/>
</svg>
