<svg width="70" height="54" viewBox="0 0 70 54" fill="none" xmlns="http://www.w3.org/2000/svg">
<path d="M31.2035 54L-7.62939e-06 54L-5.25469e-06 26.7537C-4.85945e-06 22.2189 0.804775 18.4646 2.40519 15.4631C4.0056 12.4708 6.08157 9.98038 8.64223 7.99174C11.1938 6.01239 14.0379 4.41404 17.1747 3.21528C20.3116 2.01652 23.4118 0.938568 26.4754 3.83141e-06L31.0755 8.49355C28.7526 9.38565 26.7681 10.2963 25.1219 11.2163C23.4758 12.1363 22.1223 13.1399 21.0797 14.2272C20.0372 15.3144 19.269 16.5503 18.7843 17.9442C18.2996 19.3382 18.0527 20.9737 18.0527 22.8601L31.2035 22.8601L31.2035 54ZM69.7872 54L38.6569 54L38.6569 26.7537C38.6569 22.2189 39.4617 18.4646 41.0621 15.4631C42.6625 12.4708 44.7293 9.98039 47.2625 7.99175C49.7958 6.0124 52.6216 4.41405 55.7585 3.21529C58.8953 2.01652 61.9955 0.938571 65.0592 7.21479e-06L69.7232 8.49355C67.4003 9.38565 65.4158 10.2963 63.7697 11.2163C62.1235 12.1363 60.77 13.1399 59.7275 14.2272C58.6849 15.3144 57.9167 16.5503 57.432 17.9442C56.9473 19.3382 56.7004 20.9737 56.7004 22.8601L69.7872 22.8601L69.7872 54Z" fill="#DE1E40"/>
</svg>
