<svg width="40" height="41" viewBox="0 0 40 41" fill="none" xmlns="http://www.w3.org/2000/svg">
<path fill-rule="evenodd" clip-rule="evenodd" d="M20.0001 38.6666C9.87486 38.6666 1.66675 30.4585 1.66675 20.3332C1.66675 10.208 9.87486 1.99991 20.0001 1.99991C30.1253 1.99991 38.3334 10.208 38.3334 20.3332C38.3334 30.4585 30.1253 38.6666 20.0001 38.6666ZM32.3325 28.8743C34.0143 26.4504 35 23.5069 35 20.3332C35 12.049 28.2842 5.33325 20 5.33325C11.7157 5.33325 4.99998 12.049 4.99998 20.3332C4.99998 23.507 5.98562 26.4505 7.66749 28.8743C9.54323 26.3967 13.951 25.3332 20 25.3332C26.049 25.3332 30.4567 26.3967 32.3325 28.8743ZM29.9411 31.5662C29.4533 29.8122 25.949 28.6666 20 28.6666C14.051 28.6666 10.5466 29.8122 10.0589 31.5662C12.7055 33.9102 16.1866 35.3332 20 35.3332C23.8134 35.3332 27.2945 33.9102 29.9411 31.5662ZM20 10.3332C15.9651 10.3332 13.3333 13.2595 13.3333 16.9999C13.3333 22.7122 16.2681 25.3332 20 25.3332C23.6968 25.3332 26.6666 22.7993 26.6666 17.3332C26.6666 13.5359 24.0236 10.3332 20 10.3332ZM16.6667 16.9999C16.6667 20.782 18.0304 21.9999 20.0001 21.9999C21.9629 21.9999 23.3334 20.8306 23.3334 17.3332C23.3334 15.2506 22.0262 13.6666 20.0001 13.6666C17.8896 13.6666 16.6667 15.0263 16.6667 16.9999Z" fill="white"/>
</svg>
